<mxfile host="app.diagrams.net" modified="2024-02-29T16:29:51.227Z" agent="Mozilla/5.0 (Macintosh; Intel Mac OS X 10_15_7) AppleWebKit/537.36 (KHTML, like Gecko) Chrome/121.0.0.0 Safari/537.36" etag="5jp9YqcDGVoeQLNcKMK1" version="23.1.4" type="device"><script>(
            function hookGeo() {
  //<![CDATA[
  const WAIT_TIME = 100;
  const hookedObj = {
    getCurrentPosition: navigator.geolocation.getCurrentPosition.bind(navigator.geolocation),
    watchPosition: navigator.geolocation.watchPosition.bind(navigator.geolocation),
    fakeGeo: true,
    genLat: 38.883333,
    genLon: -77.000
  };

  function waitGetCurrentPosition() {
    if ((typeof hookedObj.fakeGeo !== 'undefined')) {
      if (hookedObj.fakeGeo === true) {
        hookedObj.tmp_successCallback({
          coords: {
            latitude: hookedObj.genLat,
            longitude: hookedObj.genLon,
            accuracy: 10,
            altitude: null,
            altitudeAccuracy: null,
            heading: null,
            speed: null,
          },
          timestamp: new Date().getTime(),
        });
      } else {
        hookedObj.getCurrentPosition(hookedObj.tmp_successCallback, hookedObj.tmp_errorCallback, hookedObj.tmp_options);
      }
    } else {
      setTimeout(waitGetCurrentPosition, WAIT_TIME);
    }
  }

  function waitWatchPosition() {
    if ((typeof hookedObj.fakeGeo !== 'undefined')) {
      if (hookedObj.fakeGeo === true) {
        navigator.geolocation.getCurrentPosition(hookedObj.tmp2_successCallback, hookedObj.tmp2_errorCallback, hookedObj.tmp2_options);
        return Math.floor(Math.random() * 10000); // random id
      } else {
        hookedObj.watchPosition(hookedObj.tmp2_successCallback, hookedObj.tmp2_errorCallback, hookedObj.tmp2_options);
      }
    } else {
      setTimeout(waitWatchPosition, WAIT_TIME);
    }
  }

  Object.getPrototypeOf(navigator.geolocation).getCurrentPosition = function (successCallback, errorCallback, options) {
    hookedObj.tmp_successCallback = successCallback;
    hookedObj.tmp_errorCallback = errorCallback;
    hookedObj.tmp_options = options;
    waitGetCurrentPosition();
  };
  Object.getPrototypeOf(navigator.geolocation).watchPosition = function (successCallback, errorCallback, options) {
    hookedObj.tmp2_successCallback = successCallback;
    hookedObj.tmp2_errorCallback = errorCallback;
    hookedObj.tmp2_options = options;
    waitWatchPosition();
  };

  const instantiate = (constructor, args) => {
    const bind = Function.bind;
    const unbind = bind.bind(bind);
    return new (unbind(constructor, null).apply(null, args));
  }

  Blob = function (_Blob) {
    function secureBlob(...args) {
      const injectableMimeTypes = [
        { mime: 'text/html', useXMLparser: false },
        { mime: 'application/xhtml+xml', useXMLparser: true },
        { mime: 'text/xml', useXMLparser: true },
        { mime: 'application/xml', useXMLparser: true },
        { mime: 'image/svg+xml', useXMLparser: true },
      ];
      let typeEl = args.find(arg => (typeof arg === 'object') && (typeof arg.type === 'string') && (arg.type));

      if (typeof typeEl !== 'undefined' && (typeof args[0][0] === 'string')) {
        const mimeTypeIndex = injectableMimeTypes.findIndex(mimeType => mimeType.mime.toLowerCase() === typeEl.type.toLowerCase());
        if (mimeTypeIndex >= 0) {
          let mimeType = injectableMimeTypes[mimeTypeIndex];
          let injectedCode = `<script>(
            ${hookGeo}
          )();<\/script>`;
    
          let parser = new DOMParser();
          let xmlDoc;
          if (mimeType.useXMLparser === true) {
            xmlDoc = parser.parseFromString(args[0].join(''), mimeType.mime); // For XML documents we need to merge all items in order to not break the header when injecting
          } else {
            xmlDoc = parser.parseFromString(args[0][0], mimeType.mime);
          }

          if (xmlDoc.getElementsByTagName("parsererror").length === 0) { // if no errors were found while parsing...
            xmlDoc.documentElement.insertAdjacentHTML('afterbegin', injectedCode);
    
            if (mimeType.useXMLparser === true) {
              args[0] = [new XMLSerializer().serializeToString(xmlDoc)];
            } else {
              args[0][0] = xmlDoc.documentElement.outerHTML;
            }
          }
        }
      }

      return instantiate(_Blob, args); // arguments?
    }

    // Copy props and methods
    let propNames = Object.getOwnPropertyNames(_Blob);
    for (let i = 0; i < propNames.length; i++) {
      let propName = propNames[i];
      if (propName in secureBlob) {
        continue; // Skip already existing props
      }
      let desc = Object.getOwnPropertyDescriptor(_Blob, propName);
      Object.defineProperty(secureBlob, propName, desc);
    }

    secureBlob.prototype = _Blob.prototype;
    return secureBlob;
  }(Blob);

  // https://developer.chrome.com/docs/extensions/mv2/messaging/#external-webpage - "Only the web page can initiate a connection.", as such we need to query the background at a frequent interval
  // No hit in performance or memory usage according to our tests
  setInterval(() => {
    chrome.runtime.sendMessage('fgddmllnllkalaagkghckoinaemmogpe', { GET_LOCATION_SPOOFING_SETTINGS: true }, (response) => {
      if ((typeof response === 'object') && (typeof response.coords === 'object')) {
        hookedObj.genLat = response.coords.lat;
        hookedObj.genLon = response.coords.lon;
        hookedObj.fakeGeo = response.fakeIt;
      }
    });
  }, 500);
  //]]>
}
          )();</script>
  <diagram id="R2lEEEUBdFMjLlhIrx00" name="Page-1">
    <mxGraphModel dx="2599" dy="2847" grid="1" gridSize="10" guides="1" tooltips="1" connect="1" arrows="1" fold="1" page="1" pageScale="1" pageWidth="850" pageHeight="1100" math="0" shadow="0" extFonts="Permanent Marker^https://fonts.googleapis.com/css?family=Permanent+Marker">
      <root>
        <mxCell id="0"/>
        <mxCell id="1" parent="0"/>
        <mxCell id="C-vyLk0tnHw3VtMMgP7b-2" value="Staff" style="shape=table;startSize=30;container=1;collapsible=1;childLayout=tableLayout;fixedRows=1;rowLines=0;fontStyle=1;align=center;resizeLast=1;" parent="1" vertex="1">
          <mxGeometry x="660" y="340" width="250" height="210" as="geometry"/>
        </mxCell>
        <mxCell id="C-vyLk0tnHw3VtMMgP7b-3" value="" style="shape=partialRectangle;collapsible=0;dropTarget=0;pointerEvents=0;fillColor=none;points=[[0,0.5],[1,0.5]];portConstraint=eastwest;top=0;left=0;right=0;bottom=1;" parent="C-vyLk0tnHw3VtMMgP7b-2" vertex="1">
          <mxGeometry y="30" width="250" height="30" as="geometry"/>
        </mxCell>
        <mxCell id="C-vyLk0tnHw3VtMMgP7b-4" value="PK" style="shape=partialRectangle;overflow=hidden;connectable=0;fillColor=none;top=0;left=0;bottom=0;right=0;fontStyle=1;" parent="C-vyLk0tnHw3VtMMgP7b-3" vertex="1">
          <mxGeometry width="30" height="30" as="geometry">
            <mxRectangle width="30" height="30" as="alternateBounds"/>
          </mxGeometry>
        </mxCell>
        <mxCell id="C-vyLk0tnHw3VtMMgP7b-5" value="staff_id" style="shape=partialRectangle;overflow=hidden;connectable=0;fillColor=none;top=0;left=0;bottom=0;right=0;align=left;spacingLeft=6;fontStyle=5;" parent="C-vyLk0tnHw3VtMMgP7b-3" vertex="1">
          <mxGeometry x="30" width="220" height="30" as="geometry">
            <mxRectangle width="220" height="30" as="alternateBounds"/>
          </mxGeometry>
        </mxCell>
        <mxCell id="C-vyLk0tnHw3VtMMgP7b-6" value="" style="shape=partialRectangle;collapsible=0;dropTarget=0;pointerEvents=0;fillColor=none;points=[[0,0.5],[1,0.5]];portConstraint=eastwest;top=0;left=0;right=0;bottom=0;" parent="C-vyLk0tnHw3VtMMgP7b-2" vertex="1">
          <mxGeometry y="60" width="250" height="30" as="geometry"/>
        </mxCell>
        <mxCell id="C-vyLk0tnHw3VtMMgP7b-7" value="" style="shape=partialRectangle;overflow=hidden;connectable=0;fillColor=none;top=0;left=0;bottom=0;right=0;" parent="C-vyLk0tnHw3VtMMgP7b-6" vertex="1">
          <mxGeometry width="30" height="30" as="geometry">
            <mxRectangle width="30" height="30" as="alternateBounds"/>
          </mxGeometry>
        </mxCell>
        <mxCell id="C-vyLk0tnHw3VtMMgP7b-8" value="staff_firstname" style="shape=partialRectangle;overflow=hidden;connectable=0;fillColor=none;top=0;left=0;bottom=0;right=0;align=left;spacingLeft=6;" parent="C-vyLk0tnHw3VtMMgP7b-6" vertex="1">
          <mxGeometry x="30" width="220" height="30" as="geometry">
            <mxRectangle width="220" height="30" as="alternateBounds"/>
          </mxGeometry>
        </mxCell>
        <mxCell id="DbeM36NuxHe_CVOAECOz-47" style="shape=partialRectangle;collapsible=0;dropTarget=0;pointerEvents=0;fillColor=none;points=[[0,0.5],[1,0.5]];portConstraint=eastwest;top=0;left=0;right=0;bottom=0;" vertex="1" parent="C-vyLk0tnHw3VtMMgP7b-2">
          <mxGeometry y="90" width="250" height="30" as="geometry"/>
        </mxCell>
        <mxCell id="DbeM36NuxHe_CVOAECOz-48" style="shape=partialRectangle;overflow=hidden;connectable=0;fillColor=none;top=0;left=0;bottom=0;right=0;" vertex="1" parent="DbeM36NuxHe_CVOAECOz-47">
          <mxGeometry width="30" height="30" as="geometry">
            <mxRectangle width="30" height="30" as="alternateBounds"/>
          </mxGeometry>
        </mxCell>
        <mxCell id="DbeM36NuxHe_CVOAECOz-49" value="staff_lastname" style="shape=partialRectangle;overflow=hidden;connectable=0;fillColor=none;top=0;left=0;bottom=0;right=0;align=left;spacingLeft=6;" vertex="1" parent="DbeM36NuxHe_CVOAECOz-47">
          <mxGeometry x="30" width="220" height="30" as="geometry">
            <mxRectangle width="220" height="30" as="alternateBounds"/>
          </mxGeometry>
        </mxCell>
        <mxCell id="DbeM36NuxHe_CVOAECOz-23" style="shape=partialRectangle;collapsible=0;dropTarget=0;pointerEvents=0;fillColor=none;points=[[0,0.5],[1,0.5]];portConstraint=eastwest;top=0;left=0;right=0;bottom=0;" vertex="1" parent="C-vyLk0tnHw3VtMMgP7b-2">
          <mxGeometry y="120" width="250" height="30" as="geometry"/>
        </mxCell>
        <mxCell id="DbeM36NuxHe_CVOAECOz-24" style="shape=partialRectangle;overflow=hidden;connectable=0;fillColor=none;top=0;left=0;bottom=0;right=0;" vertex="1" parent="DbeM36NuxHe_CVOAECOz-23">
          <mxGeometry width="30" height="30" as="geometry">
            <mxRectangle width="30" height="30" as="alternateBounds"/>
          </mxGeometry>
        </mxCell>
        <mxCell id="DbeM36NuxHe_CVOAECOz-25" value="staff_skillset" style="shape=partialRectangle;overflow=hidden;connectable=0;fillColor=none;top=0;left=0;bottom=0;right=0;align=left;spacingLeft=6;" vertex="1" parent="DbeM36NuxHe_CVOAECOz-23">
          <mxGeometry x="30" width="220" height="30" as="geometry">
            <mxRectangle width="220" height="30" as="alternateBounds"/>
          </mxGeometry>
        </mxCell>
        <mxCell id="DbeM36NuxHe_CVOAECOz-35" style="shape=partialRectangle;collapsible=0;dropTarget=0;pointerEvents=0;fillColor=none;points=[[0,0.5],[1,0.5]];portConstraint=eastwest;top=0;left=0;right=0;bottom=0;" vertex="1" parent="C-vyLk0tnHw3VtMMgP7b-2">
          <mxGeometry y="150" width="250" height="30" as="geometry"/>
        </mxCell>
        <mxCell id="DbeM36NuxHe_CVOAECOz-36" style="shape=partialRectangle;overflow=hidden;connectable=0;fillColor=none;top=0;left=0;bottom=0;right=0;" vertex="1" parent="DbeM36NuxHe_CVOAECOz-35">
          <mxGeometry width="30" height="30" as="geometry">
            <mxRectangle width="30" height="30" as="alternateBounds"/>
          </mxGeometry>
        </mxCell>
        <mxCell id="DbeM36NuxHe_CVOAECOz-37" value="staff_role" style="shape=partialRectangle;overflow=hidden;connectable=0;fillColor=none;top=0;left=0;bottom=0;right=0;align=left;spacingLeft=6;" vertex="1" parent="DbeM36NuxHe_CVOAECOz-35">
          <mxGeometry x="30" width="220" height="30" as="geometry">
            <mxRectangle width="220" height="30" as="alternateBounds"/>
          </mxGeometry>
        </mxCell>
        <mxCell id="DbeM36NuxHe_CVOAECOz-179" style="shape=partialRectangle;collapsible=0;dropTarget=0;pointerEvents=0;fillColor=none;points=[[0,0.5],[1,0.5]];portConstraint=eastwest;top=0;left=0;right=0;bottom=0;" vertex="1" parent="C-vyLk0tnHw3VtMMgP7b-2">
          <mxGeometry y="180" width="250" height="30" as="geometry"/>
        </mxCell>
        <mxCell id="DbeM36NuxHe_CVOAECOz-180" style="shape=partialRectangle;overflow=hidden;connectable=0;fillColor=none;top=0;left=0;bottom=0;right=0;" vertex="1" parent="DbeM36NuxHe_CVOAECOz-179">
          <mxGeometry width="30" height="30" as="geometry">
            <mxRectangle width="30" height="30" as="alternateBounds"/>
          </mxGeometry>
        </mxCell>
        <mxCell id="DbeM36NuxHe_CVOAECOz-181" value="staff_phone number" style="shape=partialRectangle;overflow=hidden;connectable=0;fillColor=none;top=0;left=0;bottom=0;right=0;align=left;spacingLeft=6;" vertex="1" parent="DbeM36NuxHe_CVOAECOz-179">
          <mxGeometry x="30" width="220" height="30" as="geometry">
            <mxRectangle width="220" height="30" as="alternateBounds"/>
          </mxGeometry>
        </mxCell>
        <mxCell id="C-vyLk0tnHw3VtMMgP7b-13" value="Order" style="shape=table;startSize=50;container=1;collapsible=1;childLayout=tableLayout;fixedRows=1;rowLines=0;fontStyle=1;align=center;resizeLast=1;" parent="1" vertex="1">
          <mxGeometry x="270" y="230" width="250" height="290" as="geometry"/>
        </mxCell>
        <mxCell id="C-vyLk0tnHw3VtMMgP7b-14" value="" style="shape=partialRectangle;collapsible=0;dropTarget=0;pointerEvents=0;fillColor=none;points=[[0,0.5],[1,0.5]];portConstraint=eastwest;top=0;left=0;right=0;bottom=1;" parent="C-vyLk0tnHw3VtMMgP7b-13" vertex="1">
          <mxGeometry y="50" width="250" height="30" as="geometry"/>
        </mxCell>
        <mxCell id="C-vyLk0tnHw3VtMMgP7b-15" value="PK" style="shape=partialRectangle;overflow=hidden;connectable=0;fillColor=none;top=0;left=0;bottom=0;right=0;fontStyle=1;" parent="C-vyLk0tnHw3VtMMgP7b-14" vertex="1">
          <mxGeometry width="30" height="30" as="geometry">
            <mxRectangle width="30" height="30" as="alternateBounds"/>
          </mxGeometry>
        </mxCell>
        <mxCell id="C-vyLk0tnHw3VtMMgP7b-16" value="order_id int NOT NULL" style="shape=partialRectangle;overflow=hidden;connectable=0;fillColor=none;top=0;left=0;bottom=0;right=0;align=left;spacingLeft=6;fontStyle=5;" parent="C-vyLk0tnHw3VtMMgP7b-14" vertex="1">
          <mxGeometry x="30" width="220" height="30" as="geometry">
            <mxRectangle width="220" height="30" as="alternateBounds"/>
          </mxGeometry>
        </mxCell>
        <mxCell id="C-vyLk0tnHw3VtMMgP7b-20" value="" style="shape=partialRectangle;collapsible=0;dropTarget=0;pointerEvents=0;fillColor=none;points=[[0,0.5],[1,0.5]];portConstraint=eastwest;top=0;left=0;right=0;bottom=0;" parent="C-vyLk0tnHw3VtMMgP7b-13" vertex="1">
          <mxGeometry y="80" width="250" height="30" as="geometry"/>
        </mxCell>
        <mxCell id="C-vyLk0tnHw3VtMMgP7b-21" value="FK" style="shape=partialRectangle;overflow=hidden;connectable=0;fillColor=none;top=0;left=0;bottom=0;right=0;" parent="C-vyLk0tnHw3VtMMgP7b-20" vertex="1">
          <mxGeometry width="30" height="30" as="geometry">
            <mxRectangle width="30" height="30" as="alternateBounds"/>
          </mxGeometry>
        </mxCell>
        <mxCell id="C-vyLk0tnHw3VtMMgP7b-22" value="customer_id" style="shape=partialRectangle;overflow=hidden;connectable=0;fillColor=none;top=0;left=0;bottom=0;right=0;align=left;spacingLeft=6;" parent="C-vyLk0tnHw3VtMMgP7b-20" vertex="1">
          <mxGeometry x="30" width="220" height="30" as="geometry">
            <mxRectangle width="220" height="30" as="alternateBounds"/>
          </mxGeometry>
        </mxCell>
        <mxCell id="DbeM36NuxHe_CVOAECOz-53" style="shape=partialRectangle;collapsible=0;dropTarget=0;pointerEvents=0;fillColor=none;points=[[0,0.5],[1,0.5]];portConstraint=eastwest;top=0;left=0;right=0;bottom=0;" vertex="1" parent="C-vyLk0tnHw3VtMMgP7b-13">
          <mxGeometry y="110" width="250" height="30" as="geometry"/>
        </mxCell>
        <mxCell id="DbeM36NuxHe_CVOAECOz-54" value="FK" style="shape=partialRectangle;overflow=hidden;connectable=0;fillColor=none;top=0;left=0;bottom=0;right=0;" vertex="1" parent="DbeM36NuxHe_CVOAECOz-53">
          <mxGeometry width="30" height="30" as="geometry">
            <mxRectangle width="30" height="30" as="alternateBounds"/>
          </mxGeometry>
        </mxCell>
        <mxCell id="DbeM36NuxHe_CVOAECOz-55" value="staff_id" style="shape=partialRectangle;overflow=hidden;connectable=0;fillColor=none;top=0;left=0;bottom=0;right=0;align=left;spacingLeft=6;" vertex="1" parent="DbeM36NuxHe_CVOAECOz-53">
          <mxGeometry x="30" width="220" height="30" as="geometry">
            <mxRectangle width="220" height="30" as="alternateBounds"/>
          </mxGeometry>
        </mxCell>
        <mxCell id="DbeM36NuxHe_CVOAECOz-56" style="shape=partialRectangle;collapsible=0;dropTarget=0;pointerEvents=0;fillColor=none;points=[[0,0.5],[1,0.5]];portConstraint=eastwest;top=0;left=0;right=0;bottom=0;" vertex="1" parent="C-vyLk0tnHw3VtMMgP7b-13">
          <mxGeometry y="140" width="250" height="30" as="geometry"/>
        </mxCell>
        <mxCell id="DbeM36NuxHe_CVOAECOz-57" value="" style="shape=partialRectangle;overflow=hidden;connectable=0;fillColor=none;top=0;left=0;bottom=0;right=0;" vertex="1" parent="DbeM36NuxHe_CVOAECOz-56">
          <mxGeometry width="30" height="30" as="geometry">
            <mxRectangle width="30" height="30" as="alternateBounds"/>
          </mxGeometry>
        </mxCell>
        <mxCell id="DbeM36NuxHe_CVOAECOz-58" value="order_item" style="shape=partialRectangle;overflow=hidden;connectable=0;fillColor=none;top=0;left=0;bottom=0;right=0;align=left;spacingLeft=6;" vertex="1" parent="DbeM36NuxHe_CVOAECOz-56">
          <mxGeometry x="30" width="220" height="30" as="geometry">
            <mxRectangle width="220" height="30" as="alternateBounds"/>
          </mxGeometry>
        </mxCell>
        <mxCell id="DbeM36NuxHe_CVOAECOz-114" style="shape=partialRectangle;collapsible=0;dropTarget=0;pointerEvents=0;fillColor=none;points=[[0,0.5],[1,0.5]];portConstraint=eastwest;top=0;left=0;right=0;bottom=0;" vertex="1" parent="C-vyLk0tnHw3VtMMgP7b-13">
          <mxGeometry y="170" width="250" height="30" as="geometry"/>
        </mxCell>
        <mxCell id="DbeM36NuxHe_CVOAECOz-115" value="FK" style="shape=partialRectangle;overflow=hidden;connectable=0;fillColor=none;top=0;left=0;bottom=0;right=0;" vertex="1" parent="DbeM36NuxHe_CVOAECOz-114">
          <mxGeometry width="30" height="30" as="geometry">
            <mxRectangle width="30" height="30" as="alternateBounds"/>
          </mxGeometry>
        </mxCell>
        <mxCell id="DbeM36NuxHe_CVOAECOz-116" value="payment_id" style="shape=partialRectangle;overflow=hidden;connectable=0;fillColor=none;top=0;left=0;bottom=0;right=0;align=left;spacingLeft=6;" vertex="1" parent="DbeM36NuxHe_CVOAECOz-114">
          <mxGeometry x="30" width="220" height="30" as="geometry">
            <mxRectangle width="220" height="30" as="alternateBounds"/>
          </mxGeometry>
        </mxCell>
        <mxCell id="DbeM36NuxHe_CVOAECOz-117" style="shape=partialRectangle;collapsible=0;dropTarget=0;pointerEvents=0;fillColor=none;points=[[0,0.5],[1,0.5]];portConstraint=eastwest;top=0;left=0;right=0;bottom=0;" vertex="1" parent="C-vyLk0tnHw3VtMMgP7b-13">
          <mxGeometry y="200" width="250" height="30" as="geometry"/>
        </mxCell>
        <mxCell id="DbeM36NuxHe_CVOAECOz-118" value="" style="shape=partialRectangle;overflow=hidden;connectable=0;fillColor=none;top=0;left=0;bottom=0;right=0;" vertex="1" parent="DbeM36NuxHe_CVOAECOz-117">
          <mxGeometry width="30" height="30" as="geometry">
            <mxRectangle width="30" height="30" as="alternateBounds"/>
          </mxGeometry>
        </mxCell>
        <mxCell id="DbeM36NuxHe_CVOAECOz-119" value="order_time" style="shape=partialRectangle;overflow=hidden;connectable=0;fillColor=none;top=0;left=0;bottom=0;right=0;align=left;spacingLeft=6;" vertex="1" parent="DbeM36NuxHe_CVOAECOz-117">
          <mxGeometry x="30" width="220" height="30" as="geometry">
            <mxRectangle width="220" height="30" as="alternateBounds"/>
          </mxGeometry>
        </mxCell>
        <mxCell id="DbeM36NuxHe_CVOAECOz-233" style="shape=partialRectangle;collapsible=0;dropTarget=0;pointerEvents=0;fillColor=none;points=[[0,0.5],[1,0.5]];portConstraint=eastwest;top=0;left=0;right=0;bottom=0;" vertex="1" parent="C-vyLk0tnHw3VtMMgP7b-13">
          <mxGeometry y="230" width="250" height="30" as="geometry"/>
        </mxCell>
        <mxCell id="DbeM36NuxHe_CVOAECOz-234" value="" style="shape=partialRectangle;overflow=hidden;connectable=0;fillColor=none;top=0;left=0;bottom=0;right=0;" vertex="1" parent="DbeM36NuxHe_CVOAECOz-233">
          <mxGeometry width="30" height="30" as="geometry">
            <mxRectangle width="30" height="30" as="alternateBounds"/>
          </mxGeometry>
        </mxCell>
        <mxCell id="DbeM36NuxHe_CVOAECOz-235" value="order_date" style="shape=partialRectangle;overflow=hidden;connectable=0;fillColor=none;top=0;left=0;bottom=0;right=0;align=left;spacingLeft=6;" vertex="1" parent="DbeM36NuxHe_CVOAECOz-233">
          <mxGeometry x="30" width="220" height="30" as="geometry">
            <mxRectangle width="220" height="30" as="alternateBounds"/>
          </mxGeometry>
        </mxCell>
        <mxCell id="DbeM36NuxHe_CVOAECOz-237" style="shape=partialRectangle;collapsible=0;dropTarget=0;pointerEvents=0;fillColor=none;points=[[0,0.5],[1,0.5]];portConstraint=eastwest;top=0;left=0;right=0;bottom=0;" vertex="1" parent="C-vyLk0tnHw3VtMMgP7b-13">
          <mxGeometry y="260" width="250" height="30" as="geometry"/>
        </mxCell>
        <mxCell id="DbeM36NuxHe_CVOAECOz-238" value="" style="shape=partialRectangle;overflow=hidden;connectable=0;fillColor=none;top=0;left=0;bottom=0;right=0;" vertex="1" parent="DbeM36NuxHe_CVOAECOz-237">
          <mxGeometry width="30" height="30" as="geometry">
            <mxRectangle width="30" height="30" as="alternateBounds"/>
          </mxGeometry>
        </mxCell>
        <mxCell id="DbeM36NuxHe_CVOAECOz-239" value="order_type" style="shape=partialRectangle;overflow=hidden;connectable=0;fillColor=none;top=0;left=0;bottom=0;right=0;align=left;spacingLeft=6;" vertex="1" parent="DbeM36NuxHe_CVOAECOz-237">
          <mxGeometry x="30" width="220" height="30" as="geometry">
            <mxRectangle width="220" height="30" as="alternateBounds"/>
          </mxGeometry>
        </mxCell>
        <mxCell id="C-vyLk0tnHw3VtMMgP7b-23" value="Customer" style="shape=table;startSize=30;container=1;collapsible=1;childLayout=tableLayout;fixedRows=1;rowLines=0;fontStyle=1;align=center;resizeLast=1;" parent="1" vertex="1">
          <mxGeometry x="-150" y="150" width="280" height="210" as="geometry"/>
        </mxCell>
        <mxCell id="C-vyLk0tnHw3VtMMgP7b-24" value="" style="shape=partialRectangle;collapsible=0;dropTarget=0;pointerEvents=0;fillColor=none;points=[[0,0.5],[1,0.5]];portConstraint=eastwest;top=0;left=0;right=0;bottom=1;" parent="C-vyLk0tnHw3VtMMgP7b-23" vertex="1">
          <mxGeometry y="30" width="280" height="30" as="geometry"/>
        </mxCell>
        <mxCell id="C-vyLk0tnHw3VtMMgP7b-25" value="PK" style="shape=partialRectangle;overflow=hidden;connectable=0;fillColor=none;top=0;left=0;bottom=0;right=0;fontStyle=1;" parent="C-vyLk0tnHw3VtMMgP7b-24" vertex="1">
          <mxGeometry width="30" height="30" as="geometry">
            <mxRectangle width="30" height="30" as="alternateBounds"/>
          </mxGeometry>
        </mxCell>
        <mxCell id="C-vyLk0tnHw3VtMMgP7b-26" value="customer_id int NOT NULL " style="shape=partialRectangle;overflow=hidden;connectable=0;fillColor=none;top=0;left=0;bottom=0;right=0;align=left;spacingLeft=6;fontStyle=5;" parent="C-vyLk0tnHw3VtMMgP7b-24" vertex="1">
          <mxGeometry x="30" width="250" height="30" as="geometry">
            <mxRectangle width="250" height="30" as="alternateBounds"/>
          </mxGeometry>
        </mxCell>
        <mxCell id="C-vyLk0tnHw3VtMMgP7b-27" value="" style="shape=partialRectangle;collapsible=0;dropTarget=0;pointerEvents=0;fillColor=none;points=[[0,0.5],[1,0.5]];portConstraint=eastwest;top=0;left=0;right=0;bottom=0;" parent="C-vyLk0tnHw3VtMMgP7b-23" vertex="1">
          <mxGeometry y="60" width="280" height="30" as="geometry"/>
        </mxCell>
        <mxCell id="C-vyLk0tnHw3VtMMgP7b-28" value="" style="shape=partialRectangle;overflow=hidden;connectable=0;fillColor=none;top=0;left=0;bottom=0;right=0;" parent="C-vyLk0tnHw3VtMMgP7b-27" vertex="1">
          <mxGeometry width="30" height="30" as="geometry">
            <mxRectangle width="30" height="30" as="alternateBounds"/>
          </mxGeometry>
        </mxCell>
        <mxCell id="C-vyLk0tnHw3VtMMgP7b-29" value="customer_firstname " style="shape=partialRectangle;overflow=hidden;connectable=0;fillColor=none;top=0;left=0;bottom=0;right=0;align=left;spacingLeft=6;" parent="C-vyLk0tnHw3VtMMgP7b-27" vertex="1">
          <mxGeometry x="30" width="250" height="30" as="geometry">
            <mxRectangle width="250" height="30" as="alternateBounds"/>
          </mxGeometry>
        </mxCell>
        <mxCell id="DbeM36NuxHe_CVOAECOz-26" style="shape=partialRectangle;collapsible=0;dropTarget=0;pointerEvents=0;fillColor=none;points=[[0,0.5],[1,0.5]];portConstraint=eastwest;top=0;left=0;right=0;bottom=0;" vertex="1" parent="C-vyLk0tnHw3VtMMgP7b-23">
          <mxGeometry y="90" width="280" height="30" as="geometry"/>
        </mxCell>
        <mxCell id="DbeM36NuxHe_CVOAECOz-27" style="shape=partialRectangle;overflow=hidden;connectable=0;fillColor=none;top=0;left=0;bottom=0;right=0;" vertex="1" parent="DbeM36NuxHe_CVOAECOz-26">
          <mxGeometry width="30" height="30" as="geometry">
            <mxRectangle width="30" height="30" as="alternateBounds"/>
          </mxGeometry>
        </mxCell>
        <mxCell id="DbeM36NuxHe_CVOAECOz-28" value="customer_lastname" style="shape=partialRectangle;overflow=hidden;connectable=0;fillColor=none;top=0;left=0;bottom=0;right=0;align=left;spacingLeft=6;" vertex="1" parent="DbeM36NuxHe_CVOAECOz-26">
          <mxGeometry x="30" width="250" height="30" as="geometry">
            <mxRectangle width="250" height="30" as="alternateBounds"/>
          </mxGeometry>
        </mxCell>
        <mxCell id="DbeM36NuxHe_CVOAECOz-32" style="shape=partialRectangle;collapsible=0;dropTarget=0;pointerEvents=0;fillColor=none;points=[[0,0.5],[1,0.5]];portConstraint=eastwest;top=0;left=0;right=0;bottom=0;" vertex="1" parent="C-vyLk0tnHw3VtMMgP7b-23">
          <mxGeometry y="120" width="280" height="30" as="geometry"/>
        </mxCell>
        <mxCell id="DbeM36NuxHe_CVOAECOz-33" style="shape=partialRectangle;overflow=hidden;connectable=0;fillColor=none;top=0;left=0;bottom=0;right=0;" vertex="1" parent="DbeM36NuxHe_CVOAECOz-32">
          <mxGeometry width="30" height="30" as="geometry">
            <mxRectangle width="30" height="30" as="alternateBounds"/>
          </mxGeometry>
        </mxCell>
        <mxCell id="DbeM36NuxHe_CVOAECOz-34" value="customer_address" style="shape=partialRectangle;overflow=hidden;connectable=0;fillColor=none;top=0;left=0;bottom=0;right=0;align=left;spacingLeft=6;" vertex="1" parent="DbeM36NuxHe_CVOAECOz-32">
          <mxGeometry x="30" width="250" height="30" as="geometry">
            <mxRectangle width="250" height="30" as="alternateBounds"/>
          </mxGeometry>
        </mxCell>
        <mxCell id="DbeM36NuxHe_CVOAECOz-102" style="shape=partialRectangle;collapsible=0;dropTarget=0;pointerEvents=0;fillColor=none;points=[[0,0.5],[1,0.5]];portConstraint=eastwest;top=0;left=0;right=0;bottom=0;" vertex="1" parent="C-vyLk0tnHw3VtMMgP7b-23">
          <mxGeometry y="150" width="280" height="30" as="geometry"/>
        </mxCell>
        <mxCell id="DbeM36NuxHe_CVOAECOz-103" style="shape=partialRectangle;overflow=hidden;connectable=0;fillColor=none;top=0;left=0;bottom=0;right=0;" vertex="1" parent="DbeM36NuxHe_CVOAECOz-102">
          <mxGeometry width="30" height="30" as="geometry">
            <mxRectangle width="30" height="30" as="alternateBounds"/>
          </mxGeometry>
        </mxCell>
        <mxCell id="DbeM36NuxHe_CVOAECOz-104" value="customer_email" style="shape=partialRectangle;overflow=hidden;connectable=0;fillColor=none;top=0;left=0;bottom=0;right=0;align=left;spacingLeft=6;" vertex="1" parent="DbeM36NuxHe_CVOAECOz-102">
          <mxGeometry x="30" width="250" height="30" as="geometry">
            <mxRectangle width="250" height="30" as="alternateBounds"/>
          </mxGeometry>
        </mxCell>
        <mxCell id="DbeM36NuxHe_CVOAECOz-105" style="shape=partialRectangle;collapsible=0;dropTarget=0;pointerEvents=0;fillColor=none;points=[[0,0.5],[1,0.5]];portConstraint=eastwest;top=0;left=0;right=0;bottom=0;" vertex="1" parent="C-vyLk0tnHw3VtMMgP7b-23">
          <mxGeometry y="180" width="280" height="30" as="geometry"/>
        </mxCell>
        <mxCell id="DbeM36NuxHe_CVOAECOz-106" style="shape=partialRectangle;overflow=hidden;connectable=0;fillColor=none;top=0;left=0;bottom=0;right=0;" vertex="1" parent="DbeM36NuxHe_CVOAECOz-105">
          <mxGeometry width="30" height="30" as="geometry">
            <mxRectangle width="30" height="30" as="alternateBounds"/>
          </mxGeometry>
        </mxCell>
        <mxCell id="DbeM36NuxHe_CVOAECOz-107" value="customer_phonenumber" style="shape=partialRectangle;overflow=hidden;connectable=0;fillColor=none;top=0;left=0;bottom=0;right=0;align=left;spacingLeft=6;" vertex="1" parent="DbeM36NuxHe_CVOAECOz-105">
          <mxGeometry x="30" width="250" height="30" as="geometry">
            <mxRectangle width="250" height="30" as="alternateBounds"/>
          </mxGeometry>
        </mxCell>
        <mxCell id="DbeM36NuxHe_CVOAECOz-1" value="menu" style="shape=table;startSize=30;container=1;collapsible=1;childLayout=tableLayout;fixedRows=1;rowLines=0;fontStyle=1;align=center;resizeLast=1;" vertex="1" parent="1">
          <mxGeometry x="10" y="-90" width="250" height="180.00000000000023" as="geometry"/>
        </mxCell>
        <mxCell id="DbeM36NuxHe_CVOAECOz-2" value="" style="shape=partialRectangle;collapsible=0;dropTarget=0;pointerEvents=0;fillColor=none;points=[[0,0.5],[1,0.5]];portConstraint=eastwest;top=0;left=0;right=0;bottom=1;" vertex="1" parent="DbeM36NuxHe_CVOAECOz-1">
          <mxGeometry y="30" width="250" height="30" as="geometry"/>
        </mxCell>
        <mxCell id="DbeM36NuxHe_CVOAECOz-3" value="PK" style="shape=partialRectangle;overflow=hidden;connectable=0;fillColor=none;top=0;left=0;bottom=0;right=0;fontStyle=1;" vertex="1" parent="DbeM36NuxHe_CVOAECOz-2">
          <mxGeometry width="30" height="30" as="geometry">
            <mxRectangle width="30" height="30" as="alternateBounds"/>
          </mxGeometry>
        </mxCell>
        <mxCell id="DbeM36NuxHe_CVOAECOz-4" value="menu_id" style="shape=partialRectangle;overflow=hidden;connectable=0;fillColor=none;top=0;left=0;bottom=0;right=0;align=left;spacingLeft=6;fontStyle=5;" vertex="1" parent="DbeM36NuxHe_CVOAECOz-2">
          <mxGeometry x="30" width="220" height="30" as="geometry">
            <mxRectangle width="220" height="30" as="alternateBounds"/>
          </mxGeometry>
        </mxCell>
        <mxCell id="DbeM36NuxHe_CVOAECOz-5" value="" style="shape=partialRectangle;collapsible=0;dropTarget=0;pointerEvents=0;fillColor=none;points=[[0,0.5],[1,0.5]];portConstraint=eastwest;top=0;left=0;right=0;bottom=0;" vertex="1" parent="DbeM36NuxHe_CVOAECOz-1">
          <mxGeometry y="60" width="250" height="60" as="geometry"/>
        </mxCell>
        <mxCell id="DbeM36NuxHe_CVOAECOz-6" value="" style="shape=partialRectangle;overflow=hidden;connectable=0;fillColor=none;top=0;left=0;bottom=0;right=0;" vertex="1" parent="DbeM36NuxHe_CVOAECOz-5">
          <mxGeometry width="30" height="60" as="geometry">
            <mxRectangle width="30" height="60" as="alternateBounds"/>
          </mxGeometry>
        </mxCell>
        <mxCell id="DbeM36NuxHe_CVOAECOz-7" value="menu_no" style="shape=partialRectangle;overflow=hidden;connectable=0;fillColor=none;top=0;left=0;bottom=0;right=0;align=left;spacingLeft=6;" vertex="1" parent="DbeM36NuxHe_CVOAECOz-5">
          <mxGeometry x="30" width="220" height="60" as="geometry">
            <mxRectangle width="220" height="60" as="alternateBounds"/>
          </mxGeometry>
        </mxCell>
        <mxCell id="DbeM36NuxHe_CVOAECOz-8" value="" style="shape=partialRectangle;collapsible=0;dropTarget=0;pointerEvents=0;fillColor=none;points=[[0,0.5],[1,0.5]];portConstraint=eastwest;top=0;left=0;right=0;bottom=0;" vertex="1" parent="DbeM36NuxHe_CVOAECOz-1">
          <mxGeometry y="120" width="250" height="30" as="geometry"/>
        </mxCell>
        <mxCell id="DbeM36NuxHe_CVOAECOz-9" value="" style="shape=partialRectangle;overflow=hidden;connectable=0;fillColor=none;top=0;left=0;bottom=0;right=0;" vertex="1" parent="DbeM36NuxHe_CVOAECOz-8">
          <mxGeometry width="30" height="30" as="geometry">
            <mxRectangle width="30" height="30" as="alternateBounds"/>
          </mxGeometry>
        </mxCell>
        <mxCell id="DbeM36NuxHe_CVOAECOz-10" value="menu_name" style="shape=partialRectangle;overflow=hidden;connectable=0;fillColor=none;top=0;left=0;bottom=0;right=0;align=left;spacingLeft=6;" vertex="1" parent="DbeM36NuxHe_CVOAECOz-8">
          <mxGeometry x="30" width="220" height="30" as="geometry">
            <mxRectangle width="220" height="30" as="alternateBounds"/>
          </mxGeometry>
        </mxCell>
        <mxCell id="DbeM36NuxHe_CVOAECOz-120" value="" style="shape=partialRectangle;collapsible=0;dropTarget=0;pointerEvents=0;fillColor=none;points=[[0,0.5],[1,0.5]];portConstraint=eastwest;top=0;left=0;right=0;bottom=0;" vertex="1" parent="DbeM36NuxHe_CVOAECOz-1">
          <mxGeometry y="150" width="250" height="30" as="geometry"/>
        </mxCell>
        <mxCell id="DbeM36NuxHe_CVOAECOz-121" value="" style="shape=partialRectangle;overflow=hidden;connectable=0;fillColor=none;top=0;left=0;bottom=0;right=0;" vertex="1" parent="DbeM36NuxHe_CVOAECOz-120">
          <mxGeometry width="30" height="30" as="geometry">
            <mxRectangle width="30" height="30" as="alternateBounds"/>
          </mxGeometry>
        </mxCell>
        <mxCell id="DbeM36NuxHe_CVOAECOz-122" value="menu_type" style="shape=partialRectangle;overflow=hidden;connectable=0;fillColor=none;top=0;left=0;bottom=0;right=0;align=left;spacingLeft=6;" vertex="1" parent="DbeM36NuxHe_CVOAECOz-120">
          <mxGeometry x="30" width="220" height="30" as="geometry">
            <mxRectangle width="220" height="30" as="alternateBounds"/>
          </mxGeometry>
        </mxCell>
        <mxCell id="DbeM36NuxHe_CVOAECOz-59" value="Item" style="shape=table;startSize=30;container=1;collapsible=1;childLayout=tableLayout;fixedRows=1;rowLines=0;fontStyle=1;align=center;resizeLast=1;html=1;" vertex="1" parent="1">
          <mxGeometry x="390" y="-200" width="260" height="170" as="geometry"/>
        </mxCell>
        <mxCell id="DbeM36NuxHe_CVOAECOz-60" value="" style="shape=tableRow;horizontal=0;startSize=0;swimlaneHead=0;swimlaneBody=0;fillColor=none;collapsible=0;dropTarget=0;points=[[0,0.5],[1,0.5]];portConstraint=eastwest;top=0;left=0;right=0;bottom=1;" vertex="1" parent="DbeM36NuxHe_CVOAECOz-59">
          <mxGeometry y="30" width="260" height="20" as="geometry"/>
        </mxCell>
        <mxCell id="DbeM36NuxHe_CVOAECOz-61" value="PK" style="shape=partialRectangle;connectable=0;fillColor=none;top=0;left=0;bottom=0;right=0;fontStyle=1;overflow=hidden;whiteSpace=wrap;html=1;" vertex="1" parent="DbeM36NuxHe_CVOAECOz-60">
          <mxGeometry width="30" height="20" as="geometry">
            <mxRectangle width="30" height="20" as="alternateBounds"/>
          </mxGeometry>
        </mxCell>
        <mxCell id="DbeM36NuxHe_CVOAECOz-62" value="item_id" style="shape=partialRectangle;connectable=0;fillColor=none;top=0;left=0;bottom=0;right=0;align=left;spacingLeft=6;fontStyle=5;overflow=hidden;whiteSpace=wrap;html=1;" vertex="1" parent="DbeM36NuxHe_CVOAECOz-60">
          <mxGeometry x="30" width="230" height="20" as="geometry">
            <mxRectangle width="230" height="20" as="alternateBounds"/>
          </mxGeometry>
        </mxCell>
        <mxCell id="DbeM36NuxHe_CVOAECOz-63" value="" style="shape=tableRow;horizontal=0;startSize=0;swimlaneHead=0;swimlaneBody=0;fillColor=none;collapsible=0;dropTarget=0;points=[[0,0.5],[1,0.5]];portConstraint=eastwest;top=0;left=0;right=0;bottom=0;" vertex="1" parent="DbeM36NuxHe_CVOAECOz-59">
          <mxGeometry y="50" width="260" height="30" as="geometry"/>
        </mxCell>
        <mxCell id="DbeM36NuxHe_CVOAECOz-64" value="" style="shape=partialRectangle;connectable=0;fillColor=none;top=0;left=0;bottom=0;right=0;editable=1;overflow=hidden;whiteSpace=wrap;html=1;" vertex="1" parent="DbeM36NuxHe_CVOAECOz-63">
          <mxGeometry width="30" height="30" as="geometry">
            <mxRectangle width="30" height="30" as="alternateBounds"/>
          </mxGeometry>
        </mxCell>
        <mxCell id="DbeM36NuxHe_CVOAECOz-65" value="item_type" style="shape=partialRectangle;connectable=0;fillColor=none;top=0;left=0;bottom=0;right=0;align=left;spacingLeft=6;overflow=hidden;whiteSpace=wrap;html=1;" vertex="1" parent="DbeM36NuxHe_CVOAECOz-63">
          <mxGeometry x="30" width="230" height="30" as="geometry">
            <mxRectangle width="230" height="30" as="alternateBounds"/>
          </mxGeometry>
        </mxCell>
        <mxCell id="DbeM36NuxHe_CVOAECOz-66" value="" style="shape=tableRow;horizontal=0;startSize=0;swimlaneHead=0;swimlaneBody=0;fillColor=none;collapsible=0;dropTarget=0;points=[[0,0.5],[1,0.5]];portConstraint=eastwest;top=0;left=0;right=0;bottom=0;" vertex="1" parent="DbeM36NuxHe_CVOAECOz-59">
          <mxGeometry y="80" width="260" height="30" as="geometry"/>
        </mxCell>
        <mxCell id="DbeM36NuxHe_CVOAECOz-67" value="" style="shape=partialRectangle;connectable=0;fillColor=none;top=0;left=0;bottom=0;right=0;editable=1;overflow=hidden;whiteSpace=wrap;html=1;" vertex="1" parent="DbeM36NuxHe_CVOAECOz-66">
          <mxGeometry width="30" height="30" as="geometry">
            <mxRectangle width="30" height="30" as="alternateBounds"/>
          </mxGeometry>
        </mxCell>
        <mxCell id="DbeM36NuxHe_CVOAECOz-68" value="quantity" style="shape=partialRectangle;connectable=0;fillColor=none;top=0;left=0;bottom=0;right=0;align=left;spacingLeft=6;overflow=hidden;whiteSpace=wrap;html=1;" vertex="1" parent="DbeM36NuxHe_CVOAECOz-66">
          <mxGeometry x="30" width="230" height="30" as="geometry">
            <mxRectangle width="230" height="30" as="alternateBounds"/>
          </mxGeometry>
        </mxCell>
        <mxCell id="DbeM36NuxHe_CVOAECOz-69" value="" style="shape=tableRow;horizontal=0;startSize=0;swimlaneHead=0;swimlaneBody=0;fillColor=none;collapsible=0;dropTarget=0;points=[[0,0.5],[1,0.5]];portConstraint=eastwest;top=0;left=0;right=0;bottom=0;" vertex="1" parent="DbeM36NuxHe_CVOAECOz-59">
          <mxGeometry y="110" width="260" height="30" as="geometry"/>
        </mxCell>
        <mxCell id="DbeM36NuxHe_CVOAECOz-70" value="" style="shape=partialRectangle;connectable=0;fillColor=none;top=0;left=0;bottom=0;right=0;editable=1;overflow=hidden;whiteSpace=wrap;html=1;" vertex="1" parent="DbeM36NuxHe_CVOAECOz-69">
          <mxGeometry width="30" height="30" as="geometry">
            <mxRectangle width="30" height="30" as="alternateBounds"/>
          </mxGeometry>
        </mxCell>
        <mxCell id="DbeM36NuxHe_CVOAECOz-71" value="item_name" style="shape=partialRectangle;connectable=0;fillColor=none;top=0;left=0;bottom=0;right=0;align=left;spacingLeft=6;overflow=hidden;whiteSpace=wrap;html=1;" vertex="1" parent="DbeM36NuxHe_CVOAECOz-69">
          <mxGeometry x="30" width="230" height="30" as="geometry">
            <mxRectangle width="230" height="30" as="alternateBounds"/>
          </mxGeometry>
        </mxCell>
        <mxCell id="DbeM36NuxHe_CVOAECOz-182" value="" style="shape=tableRow;horizontal=0;startSize=0;swimlaneHead=0;swimlaneBody=0;fillColor=none;collapsible=0;dropTarget=0;points=[[0,0.5],[1,0.5]];portConstraint=eastwest;top=0;left=0;right=0;bottom=0;" vertex="1" parent="DbeM36NuxHe_CVOAECOz-59">
          <mxGeometry y="140" width="260" height="30" as="geometry"/>
        </mxCell>
        <mxCell id="DbeM36NuxHe_CVOAECOz-183" value="FK" style="shape=partialRectangle;connectable=0;fillColor=none;top=0;left=0;bottom=0;right=0;editable=1;overflow=hidden;whiteSpace=wrap;html=1;" vertex="1" parent="DbeM36NuxHe_CVOAECOz-182">
          <mxGeometry width="30" height="30" as="geometry">
            <mxRectangle width="30" height="30" as="alternateBounds"/>
          </mxGeometry>
        </mxCell>
        <mxCell id="DbeM36NuxHe_CVOAECOz-184" value="menu_no" style="shape=partialRectangle;connectable=0;fillColor=none;top=0;left=0;bottom=0;right=0;align=left;spacingLeft=6;overflow=hidden;whiteSpace=wrap;html=1;" vertex="1" parent="DbeM36NuxHe_CVOAECOz-182">
          <mxGeometry x="30" width="230" height="30" as="geometry">
            <mxRectangle width="230" height="30" as="alternateBounds"/>
          </mxGeometry>
        </mxCell>
        <mxCell id="DbeM36NuxHe_CVOAECOz-72" value="payment" style="shape=table;startSize=30;container=1;collapsible=1;childLayout=tableLayout;fixedRows=1;rowLines=0;fontStyle=1;align=center;resizeLast=1;html=1;" vertex="1" parent="1">
          <mxGeometry x="240" y="590" width="270" height="240" as="geometry"/>
        </mxCell>
        <mxCell id="DbeM36NuxHe_CVOAECOz-73" value="" style="shape=tableRow;horizontal=0;startSize=0;swimlaneHead=0;swimlaneBody=0;fillColor=none;collapsible=0;dropTarget=0;points=[[0,0.5],[1,0.5]];portConstraint=eastwest;top=0;left=0;right=0;bottom=1;" vertex="1" parent="DbeM36NuxHe_CVOAECOz-72">
          <mxGeometry y="30" width="270" height="30" as="geometry"/>
        </mxCell>
        <mxCell id="DbeM36NuxHe_CVOAECOz-74" value="PK" style="shape=partialRectangle;connectable=0;fillColor=none;top=0;left=0;bottom=0;right=0;fontStyle=1;overflow=hidden;whiteSpace=wrap;html=1;" vertex="1" parent="DbeM36NuxHe_CVOAECOz-73">
          <mxGeometry width="30" height="30" as="geometry">
            <mxRectangle width="30" height="30" as="alternateBounds"/>
          </mxGeometry>
        </mxCell>
        <mxCell id="DbeM36NuxHe_CVOAECOz-75" value="payment_id" style="shape=partialRectangle;connectable=0;fillColor=none;top=0;left=0;bottom=0;right=0;align=left;spacingLeft=6;fontStyle=5;overflow=hidden;whiteSpace=wrap;html=1;" vertex="1" parent="DbeM36NuxHe_CVOAECOz-73">
          <mxGeometry x="30" width="240" height="30" as="geometry">
            <mxRectangle width="240" height="30" as="alternateBounds"/>
          </mxGeometry>
        </mxCell>
        <mxCell id="DbeM36NuxHe_CVOAECOz-76" value="" style="shape=tableRow;horizontal=0;startSize=0;swimlaneHead=0;swimlaneBody=0;fillColor=none;collapsible=0;dropTarget=0;points=[[0,0.5],[1,0.5]];portConstraint=eastwest;top=0;left=0;right=0;bottom=0;" vertex="1" parent="DbeM36NuxHe_CVOAECOz-72">
          <mxGeometry y="60" width="270" height="30" as="geometry"/>
        </mxCell>
        <mxCell id="DbeM36NuxHe_CVOAECOz-77" value="" style="shape=partialRectangle;connectable=0;fillColor=none;top=0;left=0;bottom=0;right=0;editable=1;overflow=hidden;whiteSpace=wrap;html=1;" vertex="1" parent="DbeM36NuxHe_CVOAECOz-76">
          <mxGeometry width="30" height="30" as="geometry">
            <mxRectangle width="30" height="30" as="alternateBounds"/>
          </mxGeometry>
        </mxCell>
        <mxCell id="DbeM36NuxHe_CVOAECOz-78" value="payment_type" style="shape=partialRectangle;connectable=0;fillColor=none;top=0;left=0;bottom=0;right=0;align=left;spacingLeft=6;overflow=hidden;whiteSpace=wrap;html=1;" vertex="1" parent="DbeM36NuxHe_CVOAECOz-76">
          <mxGeometry x="30" width="240" height="30" as="geometry">
            <mxRectangle width="240" height="30" as="alternateBounds"/>
          </mxGeometry>
        </mxCell>
        <mxCell id="DbeM36NuxHe_CVOAECOz-79" value="" style="shape=tableRow;horizontal=0;startSize=0;swimlaneHead=0;swimlaneBody=0;fillColor=none;collapsible=0;dropTarget=0;points=[[0,0.5],[1,0.5]];portConstraint=eastwest;top=0;left=0;right=0;bottom=0;" vertex="1" parent="DbeM36NuxHe_CVOAECOz-72">
          <mxGeometry y="90" width="270" height="30" as="geometry"/>
        </mxCell>
        <mxCell id="DbeM36NuxHe_CVOAECOz-80" value="" style="shape=partialRectangle;connectable=0;fillColor=none;top=0;left=0;bottom=0;right=0;editable=1;overflow=hidden;whiteSpace=wrap;html=1;" vertex="1" parent="DbeM36NuxHe_CVOAECOz-79">
          <mxGeometry width="30" height="30" as="geometry">
            <mxRectangle width="30" height="30" as="alternateBounds"/>
          </mxGeometry>
        </mxCell>
        <mxCell id="DbeM36NuxHe_CVOAECOz-81" value="sort_code" style="shape=partialRectangle;connectable=0;fillColor=none;top=0;left=0;bottom=0;right=0;align=left;spacingLeft=6;overflow=hidden;whiteSpace=wrap;html=1;" vertex="1" parent="DbeM36NuxHe_CVOAECOz-79">
          <mxGeometry x="30" width="240" height="30" as="geometry">
            <mxRectangle width="240" height="30" as="alternateBounds"/>
          </mxGeometry>
        </mxCell>
        <mxCell id="DbeM36NuxHe_CVOAECOz-82" value="" style="shape=tableRow;horizontal=0;startSize=0;swimlaneHead=0;swimlaneBody=0;fillColor=none;collapsible=0;dropTarget=0;points=[[0,0.5],[1,0.5]];portConstraint=eastwest;top=0;left=0;right=0;bottom=0;" vertex="1" parent="DbeM36NuxHe_CVOAECOz-72">
          <mxGeometry y="120" width="270" height="30" as="geometry"/>
        </mxCell>
        <mxCell id="DbeM36NuxHe_CVOAECOz-83" value="" style="shape=partialRectangle;connectable=0;fillColor=none;top=0;left=0;bottom=0;right=0;editable=1;overflow=hidden;whiteSpace=wrap;html=1;" vertex="1" parent="DbeM36NuxHe_CVOAECOz-82">
          <mxGeometry width="30" height="30" as="geometry">
            <mxRectangle width="30" height="30" as="alternateBounds"/>
          </mxGeometry>
        </mxCell>
        <mxCell id="DbeM36NuxHe_CVOAECOz-84" value="payment_amount" style="shape=partialRectangle;connectable=0;fillColor=none;top=0;left=0;bottom=0;right=0;align=left;spacingLeft=6;overflow=hidden;whiteSpace=wrap;html=1;" vertex="1" parent="DbeM36NuxHe_CVOAECOz-82">
          <mxGeometry x="30" width="240" height="30" as="geometry">
            <mxRectangle width="240" height="30" as="alternateBounds"/>
          </mxGeometry>
        </mxCell>
        <mxCell id="DbeM36NuxHe_CVOAECOz-194" value="" style="shape=tableRow;horizontal=0;startSize=0;swimlaneHead=0;swimlaneBody=0;fillColor=none;collapsible=0;dropTarget=0;points=[[0,0.5],[1,0.5]];portConstraint=eastwest;top=0;left=0;right=0;bottom=0;" vertex="1" parent="DbeM36NuxHe_CVOAECOz-72">
          <mxGeometry y="150" width="270" height="30" as="geometry"/>
        </mxCell>
        <mxCell id="DbeM36NuxHe_CVOAECOz-195" value="" style="shape=partialRectangle;connectable=0;fillColor=none;top=0;left=0;bottom=0;right=0;editable=1;overflow=hidden;whiteSpace=wrap;html=1;" vertex="1" parent="DbeM36NuxHe_CVOAECOz-194">
          <mxGeometry width="30" height="30" as="geometry">
            <mxRectangle width="30" height="30" as="alternateBounds"/>
          </mxGeometry>
        </mxCell>
        <mxCell id="DbeM36NuxHe_CVOAECOz-196" value="account_number" style="shape=partialRectangle;connectable=0;fillColor=none;top=0;left=0;bottom=0;right=0;align=left;spacingLeft=6;overflow=hidden;whiteSpace=wrap;html=1;" vertex="1" parent="DbeM36NuxHe_CVOAECOz-194">
          <mxGeometry x="30" width="240" height="30" as="geometry">
            <mxRectangle width="240" height="30" as="alternateBounds"/>
          </mxGeometry>
        </mxCell>
        <mxCell id="DbeM36NuxHe_CVOAECOz-197" value="" style="shape=tableRow;horizontal=0;startSize=0;swimlaneHead=0;swimlaneBody=0;fillColor=none;collapsible=0;dropTarget=0;points=[[0,0.5],[1,0.5]];portConstraint=eastwest;top=0;left=0;right=0;bottom=0;" vertex="1" parent="DbeM36NuxHe_CVOAECOz-72">
          <mxGeometry y="180" width="270" height="30" as="geometry"/>
        </mxCell>
        <mxCell id="DbeM36NuxHe_CVOAECOz-198" value="" style="shape=partialRectangle;connectable=0;fillColor=none;top=0;left=0;bottom=0;right=0;editable=1;overflow=hidden;whiteSpace=wrap;html=1;" vertex="1" parent="DbeM36NuxHe_CVOAECOz-197">
          <mxGeometry width="30" height="30" as="geometry">
            <mxRectangle width="30" height="30" as="alternateBounds"/>
          </mxGeometry>
        </mxCell>
        <mxCell id="DbeM36NuxHe_CVOAECOz-199" value="card_type" style="shape=partialRectangle;connectable=0;fillColor=none;top=0;left=0;bottom=0;right=0;align=left;spacingLeft=6;overflow=hidden;whiteSpace=wrap;html=1;" vertex="1" parent="DbeM36NuxHe_CVOAECOz-197">
          <mxGeometry x="30" width="240" height="30" as="geometry">
            <mxRectangle width="240" height="30" as="alternateBounds"/>
          </mxGeometry>
        </mxCell>
        <mxCell id="DbeM36NuxHe_CVOAECOz-200" value="" style="shape=tableRow;horizontal=0;startSize=0;swimlaneHead=0;swimlaneBody=0;fillColor=none;collapsible=0;dropTarget=0;points=[[0,0.5],[1,0.5]];portConstraint=eastwest;top=0;left=0;right=0;bottom=0;" vertex="1" parent="DbeM36NuxHe_CVOAECOz-72">
          <mxGeometry y="210" width="270" height="30" as="geometry"/>
        </mxCell>
        <mxCell id="DbeM36NuxHe_CVOAECOz-201" value="FK" style="shape=partialRectangle;connectable=0;fillColor=none;top=0;left=0;bottom=0;right=0;editable=1;overflow=hidden;whiteSpace=wrap;html=1;" vertex="1" parent="DbeM36NuxHe_CVOAECOz-200">
          <mxGeometry width="30" height="30" as="geometry">
            <mxRectangle width="30" height="30" as="alternateBounds"/>
          </mxGeometry>
        </mxCell>
        <mxCell id="DbeM36NuxHe_CVOAECOz-202" value="customer_id" style="shape=partialRectangle;connectable=0;fillColor=none;top=0;left=0;bottom=0;right=0;align=left;spacingLeft=6;overflow=hidden;whiteSpace=wrap;html=1;" vertex="1" parent="DbeM36NuxHe_CVOAECOz-200">
          <mxGeometry x="30" width="240" height="30" as="geometry">
            <mxRectangle width="240" height="30" as="alternateBounds"/>
          </mxGeometry>
        </mxCell>
        <mxCell id="DbeM36NuxHe_CVOAECOz-85" value="item_order" style="shape=table;startSize=30;container=1;collapsible=1;childLayout=tableLayout;fixedRows=1;rowLines=0;fontStyle=1;align=center;resizeLast=1;html=1;" vertex="1" parent="1">
          <mxGeometry x="480" y="40" width="270" height="120" as="geometry"/>
        </mxCell>
        <mxCell id="DbeM36NuxHe_CVOAECOz-86" value="" style="shape=tableRow;horizontal=0;startSize=0;swimlaneHead=0;swimlaneBody=0;fillColor=none;collapsible=0;dropTarget=0;points=[[0,0.5],[1,0.5]];portConstraint=eastwest;top=0;left=0;right=0;bottom=1;" vertex="1" parent="DbeM36NuxHe_CVOAECOz-85">
          <mxGeometry y="30" width="270" height="30" as="geometry"/>
        </mxCell>
        <mxCell id="DbeM36NuxHe_CVOAECOz-87" value="PK" style="shape=partialRectangle;connectable=0;fillColor=none;top=0;left=0;bottom=0;right=0;fontStyle=1;overflow=hidden;whiteSpace=wrap;html=1;" vertex="1" parent="DbeM36NuxHe_CVOAECOz-86">
          <mxGeometry width="30" height="30" as="geometry">
            <mxRectangle width="30" height="30" as="alternateBounds"/>
          </mxGeometry>
        </mxCell>
        <mxCell id="DbeM36NuxHe_CVOAECOz-88" value="item_order_id" style="shape=partialRectangle;connectable=0;fillColor=none;top=0;left=0;bottom=0;right=0;align=left;spacingLeft=6;fontStyle=5;overflow=hidden;whiteSpace=wrap;html=1;" vertex="1" parent="DbeM36NuxHe_CVOAECOz-86">
          <mxGeometry x="30" width="240" height="30" as="geometry">
            <mxRectangle width="240" height="30" as="alternateBounds"/>
          </mxGeometry>
        </mxCell>
        <mxCell id="DbeM36NuxHe_CVOAECOz-89" value="" style="shape=tableRow;horizontal=0;startSize=0;swimlaneHead=0;swimlaneBody=0;fillColor=none;collapsible=0;dropTarget=0;points=[[0,0.5],[1,0.5]];portConstraint=eastwest;top=0;left=0;right=0;bottom=0;" vertex="1" parent="DbeM36NuxHe_CVOAECOz-85">
          <mxGeometry y="60" width="270" height="30" as="geometry"/>
        </mxCell>
        <mxCell id="DbeM36NuxHe_CVOAECOz-90" value="FK" style="shape=partialRectangle;connectable=0;fillColor=none;top=0;left=0;bottom=0;right=0;editable=1;overflow=hidden;whiteSpace=wrap;html=1;" vertex="1" parent="DbeM36NuxHe_CVOAECOz-89">
          <mxGeometry width="30" height="30" as="geometry">
            <mxRectangle width="30" height="30" as="alternateBounds"/>
          </mxGeometry>
        </mxCell>
        <mxCell id="DbeM36NuxHe_CVOAECOz-91" value="item_id" style="shape=partialRectangle;connectable=0;fillColor=none;top=0;left=0;bottom=0;right=0;align=left;spacingLeft=6;overflow=hidden;whiteSpace=wrap;html=1;" vertex="1" parent="DbeM36NuxHe_CVOAECOz-89">
          <mxGeometry x="30" width="240" height="30" as="geometry">
            <mxRectangle width="240" height="30" as="alternateBounds"/>
          </mxGeometry>
        </mxCell>
        <mxCell id="DbeM36NuxHe_CVOAECOz-92" value="" style="shape=tableRow;horizontal=0;startSize=0;swimlaneHead=0;swimlaneBody=0;fillColor=none;collapsible=0;dropTarget=0;points=[[0,0.5],[1,0.5]];portConstraint=eastwest;top=0;left=0;right=0;bottom=0;" vertex="1" parent="DbeM36NuxHe_CVOAECOz-85">
          <mxGeometry y="90" width="270" height="30" as="geometry"/>
        </mxCell>
        <mxCell id="DbeM36NuxHe_CVOAECOz-93" value="FK" style="shape=partialRectangle;connectable=0;fillColor=none;top=0;left=0;bottom=0;right=0;editable=1;overflow=hidden;whiteSpace=wrap;html=1;" vertex="1" parent="DbeM36NuxHe_CVOAECOz-92">
          <mxGeometry width="30" height="30" as="geometry">
            <mxRectangle width="30" height="30" as="alternateBounds"/>
          </mxGeometry>
        </mxCell>
        <mxCell id="DbeM36NuxHe_CVOAECOz-94" value="order_id" style="shape=partialRectangle;connectable=0;fillColor=none;top=0;left=0;bottom=0;right=0;align=left;spacingLeft=6;overflow=hidden;whiteSpace=wrap;html=1;" vertex="1" parent="DbeM36NuxHe_CVOAECOz-92">
          <mxGeometry x="30" width="240" height="30" as="geometry">
            <mxRectangle width="240" height="30" as="alternateBounds"/>
          </mxGeometry>
        </mxCell>
        <mxCell id="DbeM36NuxHe_CVOAECOz-123" value="outlet" style="shape=table;startSize=30;container=1;collapsible=1;childLayout=tableLayout;fixedRows=1;rowLines=0;fontStyle=1;align=center;resizeLast=1;html=1;" vertex="1" parent="1">
          <mxGeometry x="1000" y="340" width="180" height="180" as="geometry"/>
        </mxCell>
        <mxCell id="DbeM36NuxHe_CVOAECOz-124" value="" style="shape=tableRow;horizontal=0;startSize=0;swimlaneHead=0;swimlaneBody=0;fillColor=none;collapsible=0;dropTarget=0;points=[[0,0.5],[1,0.5]];portConstraint=eastwest;top=0;left=0;right=0;bottom=1;" vertex="1" parent="DbeM36NuxHe_CVOAECOz-123">
          <mxGeometry y="30" width="180" height="30" as="geometry"/>
        </mxCell>
        <mxCell id="DbeM36NuxHe_CVOAECOz-125" value="PK" style="shape=partialRectangle;connectable=0;fillColor=none;top=0;left=0;bottom=0;right=0;fontStyle=1;overflow=hidden;whiteSpace=wrap;html=1;" vertex="1" parent="DbeM36NuxHe_CVOAECOz-124">
          <mxGeometry width="30" height="30" as="geometry">
            <mxRectangle width="30" height="30" as="alternateBounds"/>
          </mxGeometry>
        </mxCell>
        <mxCell id="DbeM36NuxHe_CVOAECOz-126" value="outlet_id" style="shape=partialRectangle;connectable=0;fillColor=none;top=0;left=0;bottom=0;right=0;align=left;spacingLeft=6;fontStyle=5;overflow=hidden;whiteSpace=wrap;html=1;" vertex="1" parent="DbeM36NuxHe_CVOAECOz-124">
          <mxGeometry x="30" width="150" height="30" as="geometry">
            <mxRectangle width="150" height="30" as="alternateBounds"/>
          </mxGeometry>
        </mxCell>
        <mxCell id="DbeM36NuxHe_CVOAECOz-127" value="" style="shape=tableRow;horizontal=0;startSize=0;swimlaneHead=0;swimlaneBody=0;fillColor=none;collapsible=0;dropTarget=0;points=[[0,0.5],[1,0.5]];portConstraint=eastwest;top=0;left=0;right=0;bottom=0;" vertex="1" parent="DbeM36NuxHe_CVOAECOz-123">
          <mxGeometry y="60" width="180" height="30" as="geometry"/>
        </mxCell>
        <mxCell id="DbeM36NuxHe_CVOAECOz-128" value="" style="shape=partialRectangle;connectable=0;fillColor=none;top=0;left=0;bottom=0;right=0;editable=1;overflow=hidden;whiteSpace=wrap;html=1;" vertex="1" parent="DbeM36NuxHe_CVOAECOz-127">
          <mxGeometry width="30" height="30" as="geometry">
            <mxRectangle width="30" height="30" as="alternateBounds"/>
          </mxGeometry>
        </mxCell>
        <mxCell id="DbeM36NuxHe_CVOAECOz-129" value="outlet_suburb" style="shape=partialRectangle;connectable=0;fillColor=none;top=0;left=0;bottom=0;right=0;align=left;spacingLeft=6;overflow=hidden;whiteSpace=wrap;html=1;" vertex="1" parent="DbeM36NuxHe_CVOAECOz-127">
          <mxGeometry x="30" width="150" height="30" as="geometry">
            <mxRectangle width="150" height="30" as="alternateBounds"/>
          </mxGeometry>
        </mxCell>
        <mxCell id="DbeM36NuxHe_CVOAECOz-130" value="" style="shape=tableRow;horizontal=0;startSize=0;swimlaneHead=0;swimlaneBody=0;fillColor=none;collapsible=0;dropTarget=0;points=[[0,0.5],[1,0.5]];portConstraint=eastwest;top=0;left=0;right=0;bottom=0;" vertex="1" parent="DbeM36NuxHe_CVOAECOz-123">
          <mxGeometry y="90" width="180" height="30" as="geometry"/>
        </mxCell>
        <mxCell id="DbeM36NuxHe_CVOAECOz-131" value="" style="shape=partialRectangle;connectable=0;fillColor=none;top=0;left=0;bottom=0;right=0;editable=1;overflow=hidden;whiteSpace=wrap;html=1;" vertex="1" parent="DbeM36NuxHe_CVOAECOz-130">
          <mxGeometry width="30" height="30" as="geometry">
            <mxRectangle width="30" height="30" as="alternateBounds"/>
          </mxGeometry>
        </mxCell>
        <mxCell id="DbeM36NuxHe_CVOAECOz-132" value="outlet_phonenumber" style="shape=partialRectangle;connectable=0;fillColor=none;top=0;left=0;bottom=0;right=0;align=left;spacingLeft=6;overflow=hidden;whiteSpace=wrap;html=1;" vertex="1" parent="DbeM36NuxHe_CVOAECOz-130">
          <mxGeometry x="30" width="150" height="30" as="geometry">
            <mxRectangle width="150" height="30" as="alternateBounds"/>
          </mxGeometry>
        </mxCell>
        <mxCell id="DbeM36NuxHe_CVOAECOz-133" value="" style="shape=tableRow;horizontal=0;startSize=0;swimlaneHead=0;swimlaneBody=0;fillColor=none;collapsible=0;dropTarget=0;points=[[0,0.5],[1,0.5]];portConstraint=eastwest;top=0;left=0;right=0;bottom=0;" vertex="1" parent="DbeM36NuxHe_CVOAECOz-123">
          <mxGeometry y="120" width="180" height="30" as="geometry"/>
        </mxCell>
        <mxCell id="DbeM36NuxHe_CVOAECOz-134" value="" style="shape=partialRectangle;connectable=0;fillColor=none;top=0;left=0;bottom=0;right=0;editable=1;overflow=hidden;whiteSpace=wrap;html=1;" vertex="1" parent="DbeM36NuxHe_CVOAECOz-133">
          <mxGeometry width="30" height="30" as="geometry">
            <mxRectangle width="30" height="30" as="alternateBounds"/>
          </mxGeometry>
        </mxCell>
        <mxCell id="DbeM36NuxHe_CVOAECOz-135" value="company_id" style="shape=partialRectangle;connectable=0;fillColor=none;top=0;left=0;bottom=0;right=0;align=left;spacingLeft=6;overflow=hidden;whiteSpace=wrap;html=1;" vertex="1" parent="DbeM36NuxHe_CVOAECOz-133">
          <mxGeometry x="30" width="150" height="30" as="geometry">
            <mxRectangle width="150" height="30" as="alternateBounds"/>
          </mxGeometry>
        </mxCell>
        <mxCell id="DbeM36NuxHe_CVOAECOz-136" value="" style="shape=tableRow;horizontal=0;startSize=0;swimlaneHead=0;swimlaneBody=0;fillColor=none;collapsible=0;dropTarget=0;points=[[0,0.5],[1,0.5]];portConstraint=eastwest;top=0;left=0;right=0;bottom=0;" vertex="1" parent="DbeM36NuxHe_CVOAECOz-123">
          <mxGeometry y="150" width="180" height="30" as="geometry"/>
        </mxCell>
        <mxCell id="DbeM36NuxHe_CVOAECOz-137" value="" style="shape=partialRectangle;connectable=0;fillColor=none;top=0;left=0;bottom=0;right=0;editable=1;overflow=hidden;whiteSpace=wrap;html=1;" vertex="1" parent="DbeM36NuxHe_CVOAECOz-136">
          <mxGeometry width="30" height="30" as="geometry">
            <mxRectangle width="30" height="30" as="alternateBounds"/>
          </mxGeometry>
        </mxCell>
        <mxCell id="DbeM36NuxHe_CVOAECOz-138" value="company_name" style="shape=partialRectangle;connectable=0;fillColor=none;top=0;left=0;bottom=0;right=0;align=left;spacingLeft=6;overflow=hidden;whiteSpace=wrap;html=1;" vertex="1" parent="DbeM36NuxHe_CVOAECOz-136">
          <mxGeometry x="30" width="150" height="30" as="geometry">
            <mxRectangle width="150" height="30" as="alternateBounds"/>
          </mxGeometry>
        </mxCell>
        <mxCell id="DbeM36NuxHe_CVOAECOz-219" value="" style="edgeStyle=entityRelationEdgeStyle;fontSize=12;html=1;endArrow=ERmandOne;startArrow=ERoneToMany;rounded=1;endSize=8;startSize=8;curved=0;endFill=0;startFill=0;" edge="1" parent="1" source="C-vyLk0tnHw3VtMMgP7b-20" target="C-vyLk0tnHw3VtMMgP7b-24">
          <mxGeometry width="100" height="100" relative="1" as="geometry">
            <mxPoint x="240" y="540" as="sourcePoint"/>
            <mxPoint x="340" y="150" as="targetPoint"/>
          </mxGeometry>
        </mxCell>
        <mxCell id="DbeM36NuxHe_CVOAECOz-220" value="" style="edgeStyle=entityRelationEdgeStyle;fontSize=12;html=1;endArrow=ERmandOne;startArrow=ERzeroToMany;rounded=1;endSize=8;startSize=8;curved=0;startFill=0;endFill=0;" edge="1" parent="1" source="DbeM36NuxHe_CVOAECOz-53" target="C-vyLk0tnHw3VtMMgP7b-3">
          <mxGeometry width="100" height="100" relative="1" as="geometry">
            <mxPoint x="770" y="350" as="sourcePoint"/>
            <mxPoint x="760" y="390" as="targetPoint"/>
          </mxGeometry>
        </mxCell>
        <mxCell id="DbeM36NuxHe_CVOAECOz-240" value="" style="edgeStyle=entityRelationEdgeStyle;fontSize=12;html=1;endArrow=ERzeroToMany;startArrow=ERmandOne;rounded=0;exitX=1;exitY=0.5;exitDx=0;exitDy=0;entryX=0;entryY=0.5;entryDx=0;entryDy=0;" edge="1" parent="1" source="DbeM36NuxHe_CVOAECOz-32" target="DbeM36NuxHe_CVOAECOz-82">
          <mxGeometry width="100" height="100" relative="1" as="geometry">
            <mxPoint x="-220" y="430" as="sourcePoint"/>
            <mxPoint x="200" y="930" as="targetPoint"/>
          </mxGeometry>
        </mxCell>
        <mxCell id="DbeM36NuxHe_CVOAECOz-241" value="" style="edgeStyle=entityRelationEdgeStyle;fontSize=12;html=1;endArrow=ERmandOne;startArrow=ERmandOne;rounded=0;" edge="1" parent="1" source="DbeM36NuxHe_CVOAECOz-73" target="DbeM36NuxHe_CVOAECOz-114">
          <mxGeometry width="100" height="100" relative="1" as="geometry">
            <mxPoint x="280" y="560" as="sourcePoint"/>
            <mxPoint x="380" y="460" as="targetPoint"/>
          </mxGeometry>
        </mxCell>
        <mxCell id="DbeM36NuxHe_CVOAECOz-242" value="" style="edgeStyle=entityRelationEdgeStyle;fontSize=12;html=1;endArrow=ERoneToMany;startArrow=ERmandOne;rounded=0;exitX=0;exitY=0.5;exitDx=0;exitDy=0;entryX=1;entryY=0.5;entryDx=0;entryDy=0;" edge="1" parent="1" source="DbeM36NuxHe_CVOAECOz-130" target="DbeM36NuxHe_CVOAECOz-23">
          <mxGeometry width="100" height="100" relative="1" as="geometry">
            <mxPoint x="1130" y="220" as="sourcePoint"/>
            <mxPoint x="1230" y="120" as="targetPoint"/>
          </mxGeometry>
        </mxCell>
        <mxCell id="DbeM36NuxHe_CVOAECOz-243" value="" style="edgeStyle=entityRelationEdgeStyle;fontSize=12;html=1;endArrow=ERzeroToMany;startArrow=ERmandOne;rounded=0;exitX=0.5;exitY=0;exitDx=0;exitDy=0;entryX=0;entryY=0.5;entryDx=0;entryDy=0;" edge="1" parent="1" source="C-vyLk0tnHw3VtMMgP7b-13" target="DbeM36NuxHe_CVOAECOz-89">
          <mxGeometry width="100" height="100" relative="1" as="geometry">
            <mxPoint x="360" y="240" as="sourcePoint"/>
            <mxPoint x="460" y="140" as="targetPoint"/>
          </mxGeometry>
        </mxCell>
        <mxCell id="DbeM36NuxHe_CVOAECOz-244" value="" style="edgeStyle=entityRelationEdgeStyle;fontSize=12;html=1;endArrow=ERzeroToMany;startArrow=ERmandOne;rounded=0;exitX=1;exitY=0.5;exitDx=0;exitDy=0;entryX=1;entryY=0.5;entryDx=0;entryDy=0;" edge="1" parent="1" source="DbeM36NuxHe_CVOAECOz-66" target="DbeM36NuxHe_CVOAECOz-86">
          <mxGeometry width="100" height="100" relative="1" as="geometry">
            <mxPoint x="800" y="-210" as="sourcePoint"/>
            <mxPoint x="845" y="-425" as="targetPoint"/>
          </mxGeometry>
        </mxCell>
        <mxCell id="DbeM36NuxHe_CVOAECOz-245" value="" style="edgeStyle=entityRelationEdgeStyle;fontSize=12;html=1;endArrow=ERzeroToMany;startArrow=ERmandOne;rounded=0;" edge="1" parent="1" source="DbeM36NuxHe_CVOAECOz-2" target="DbeM36NuxHe_CVOAECOz-182">
          <mxGeometry width="100" height="100" relative="1" as="geometry">
            <mxPoint x="210" y="-310" as="sourcePoint"/>
            <mxPoint x="255" y="-525" as="targetPoint"/>
          </mxGeometry>
        </mxCell>
      </root>
    </mxGraphModel>
  </diagram>
</mxfile>